<?xml version="1.0"?>
<!-- Created with xTool Creative Space (https://www.xtool.com/pages/software) -->
<svg xmlns="http://www.w3.org/2000/svg" xmlns:xlink="http://www.w3.org/1999/xlink" xmlns:xcs="https://www.xtool.com/pages/software" version="1.1" preserveAspectRatio="xMinYMin meet" width="98.5mm" height="50.6mm" viewBox="1 1 98.5 50.6" xcs:version="1.7.8"><style>svg * { vector-effect: non-scaling-stroke; stroke-width: 1px; }</style>
<g transform="matrix(1,0,0,1,-0.52,18.780001)" stroke="#2366ff" fill="none"><path transform="matrix(1,0,0,1,5.588,1.42109e-14)" stroke="#2366ff" fill="none" d="M2.03 0L2.03 -17.78L8.84 -17.78Q10.44 -17.78 11.7 -17.16Q12.95 -16.54 13.69 -15.39Q14.43 -14.25 14.43 -12.62L14.43 -12.29Q14.43 -10.69 13.68 -9.54Q12.93 -8.38 11.66 -7.77Q10.39 -7.16 8.84 -7.16L4.17 -7.16L4.17 0ZM4.17 -9.09L8.61 -9.09Q10.31 -9.09 11.3 -9.94Q12.29 -10.79 12.29 -12.34L12.29 -12.6Q12.29 -14.15 11.32 -15Q10.34 -15.85 8.61 -15.85L4.17 -15.85Z" fillRule="nonzero"></path>
<path transform="matrix(1,0,0,1,20.8534,1.42109e-14)" stroke="#2366ff" fill="none" d="M7.8 0.36Q5.92 0.36 4.5 -0.44Q3.07 -1.24 2.29 -2.69Q1.5 -4.14 1.5 -6.05L1.5 -6.35Q1.5 -8.28 2.29 -9.73Q3.07 -11.18 4.47 -11.98Q5.87 -12.78 7.67 -12.78Q9.42 -12.78 10.77 -12.03Q12.12 -11.28 12.88 -9.88Q13.64 -8.48 13.64 -6.6L13.64 -5.69L3.51 -5.69Q3.58 -3.68 4.8 -2.55Q6.02 -1.42 7.85 -1.42Q9.45 -1.42 10.31 -2.16Q11.18 -2.9 11.63 -3.91L13.36 -3.07Q12.98 -2.29 12.31 -1.5Q11.63 -0.71 10.55 -0.18Q9.47 0.36 7.8 0.36ZM3.53 -7.34L11.61 -7.34Q11.51 -9.07 10.43 -10.03Q9.35 -11 7.67 -11Q5.97 -11 4.88 -10.03Q3.78 -9.07 3.53 -7.34Z" fillRule="nonzero"></path>
<path transform="matrix(1,0,0,1,35.8902,1.42109e-14)" stroke="#2366ff" fill="none" d="M2.11 0L2.11 -12.42L4.06 -12.42L4.06 -10.31L4.42 -10.31Q4.83 -11.2 5.8 -11.93Q6.78 -12.65 8.69 -12.65Q10.08 -12.65 11.19 -12.06Q12.29 -11.48 12.95 -10.34Q13.61 -9.19 13.61 -7.52L13.61 0L11.61 0L11.61 -7.37Q11.61 -9.22 10.68 -10.06Q9.75 -10.9 8.18 -10.9Q6.38 -10.9 5.25 -9.73Q4.11 -8.56 4.11 -6.25L4.11 0Z" fillRule="nonzero"></path>
<path transform="matrix(1,0,0,1,51.4604,1.42109e-14)" stroke="#2366ff" fill="none" d="M1.19 0L1.19 -1.9L3.68 -1.9L3.68 -15.87L1.19 -15.87L1.19 -17.78L10.11 -17.78Q11.66 -17.78 12.87 -17.22Q14.07 -16.66 14.74 -15.66Q15.42 -14.66 15.42 -13.31L15.42 -13.11Q15.42 -11.86 14.94 -11.06Q14.45 -10.26 13.79 -9.82Q13.13 -9.37 12.5 -9.17L12.5 -8.81Q13.13 -8.66 13.82 -8.22Q14.5 -7.77 14.97 -6.96Q15.44 -6.15 15.44 -4.9L15.44 -4.65Q15.44 -3.2 14.74 -2.15Q14.05 -1.09 12.84 -0.55Q11.63 0 10.08 0ZM5.82 -1.93L9.86 -1.93Q11.53 -1.93 12.42 -2.72Q13.31 -3.51 13.31 -4.85L13.31 -5.08Q13.31 -6.43 12.42 -7.21Q11.53 -8 9.86 -8L5.82 -8ZM5.82 -9.93L9.93 -9.93Q11.46 -9.93 12.37 -10.71Q13.28 -11.48 13.28 -12.75L13.28 -13Q13.28 -14.3 12.38 -15.07Q11.48 -15.85 9.93 -15.85L5.82 -15.85Z" fillRule="nonzero"></path>
<path transform="matrix(1,0,0,1,68.2498,1.42109e-14)" stroke="#2366ff" fill="none" d="M7.85 0.36Q5.97 0.36 4.53 -0.43Q3.1 -1.22 2.3 -2.65Q1.5 -4.09 1.5 -6.05L1.5 -6.38Q1.5 -8.31 2.3 -9.75Q3.1 -11.2 4.53 -11.99Q5.97 -12.78 7.85 -12.78Q9.73 -12.78 11.16 -11.99Q12.6 -11.2 13.4 -9.75Q14.2 -8.31 14.2 -6.38L14.2 -6.05Q14.2 -4.09 13.4 -2.65Q12.6 -1.22 11.16 -0.43Q9.73 0.36 7.85 0.36ZM7.85 -1.45Q9.83 -1.45 11.01 -2.71Q12.19 -3.96 12.19 -6.1L12.19 -6.32Q12.19 -8.46 11.01 -9.72Q9.83 -10.97 7.85 -10.97Q5.89 -10.97 4.7 -9.72Q3.51 -8.46 3.51 -6.32L3.51 -6.1Q3.51 -3.96 4.7 -2.71Q5.89 -1.45 7.85 -1.45Z" fillRule="nonzero"></path>
<path transform="matrix(1,0,0,1,83.947,1.42109e-14)" stroke="#2366ff" fill="none" d="M6.68 0Q5.61 0 5.04 -0.58Q4.47 -1.17 4.47 -2.18L4.47 -10.67L0.74 -10.67L0.74 -12.42L4.47 -12.42L4.47 -16.84L6.48 -16.84L6.48 -12.42L10.54 -12.42L10.54 -10.67L6.48 -10.67L6.48 -2.49Q6.48 -1.73 7.21 -1.73L9.98 -1.73L9.98 0Z" fillRule="nonzero"></path>
<path transform="matrix(1,0,0,1,0,32.4104)" stroke="#2366ff" fill="none" d="M8.48 0.36Q5.31 0.36 3.42 -1.49Q1.52 -3.33 1.52 -6.86L1.52 -10.92Q1.52 -14.45 3.42 -16.29Q5.31 -18.14 8.48 -18.14Q11.68 -18.14 13.58 -16.29Q15.47 -14.45 15.47 -10.92L15.47 -6.86Q15.47 -3.33 13.58 -1.49Q11.68 0.36 8.48 0.36ZM8.48 -1.55Q10.8 -1.55 12.07 -2.93Q13.34 -4.32 13.34 -6.78L13.34 -11Q13.34 -13.46 12.07 -14.85Q10.8 -16.23 8.48 -16.23Q6.2 -16.23 4.93 -14.85Q3.66 -13.46 3.66 -11L3.66 -6.78Q3.66 -4.32 4.93 -2.93Q6.2 -1.55 8.48 -1.55Z" fillRule="nonzero"></path>
<path transform="matrix(1,0,0,1,16.9926,32.4104)" stroke="#2366ff" fill="none" d="M7.95 0.36Q6.02 0.36 4.5 -0.33Q2.97 -1.02 2.1 -2.4Q1.22 -3.78 1.22 -5.87L1.22 -6.4L3.33 -6.4L3.33 -5.87Q3.33 -3.66 4.62 -2.58Q5.92 -1.5 7.95 -1.5Q10.03 -1.5 11.13 -2.44Q12.22 -3.38 12.22 -4.8Q12.22 -5.79 11.72 -6.38Q11.23 -6.96 10.34 -7.33Q9.45 -7.7 8.25 -7.98L6.93 -8.31Q5.38 -8.71 4.19 -9.3Q3 -9.88 2.32 -10.83Q1.65 -11.79 1.65 -13.28Q1.65 -14.78 2.4 -15.87Q3.15 -16.97 4.51 -17.55Q5.87 -18.14 7.65 -18.14Q9.45 -18.14 10.88 -17.51Q12.32 -16.89 13.14 -15.68Q13.97 -14.48 13.97 -12.65L13.97 -11.58L11.86 -11.58L11.86 -12.65Q11.86 -13.94 11.32 -14.73Q10.77 -15.52 9.82 -15.9Q8.86 -16.28 7.65 -16.28Q5.89 -16.28 4.83 -15.51Q3.76 -14.73 3.76 -13.31Q3.76 -12.37 4.22 -11.79Q4.67 -11.2 5.51 -10.83Q6.35 -10.46 7.52 -10.19L8.84 -9.86Q10.39 -9.52 11.62 -8.95Q12.85 -8.38 13.59 -7.4Q14.33 -6.43 14.33 -4.85Q14.33 -3.28 13.54 -2.11Q12.75 -0.94 11.32 -0.29Q9.88 0.36 7.95 0.36Z" fillRule="nonzero"></path>
<path transform="matrix(1,0,0,1,32.5628,32.4104)" stroke="#2366ff" fill="none" fillRule="nonzero"></path>
<path transform="matrix(1,0,0,1,39.0906,32.4104)" stroke="#2366ff" fill="none" d="M1.35 0L1.35 -1.85Q1.35 -3.76 2.02 -4.9Q2.69 -6.05 3.9 -6.74Q5.11 -7.44 6.78 -7.95L8.18 -8.38Q9.32 -8.74 10.19 -9.26Q11.05 -9.78 11.53 -10.58Q12.01 -11.38 12.01 -12.55L12.01 -12.65Q12.01 -14.33 10.85 -15.3Q9.68 -16.28 7.85 -16.28Q5.92 -16.28 4.7 -15.25Q3.48 -14.22 3.48 -12.14L3.48 -11.79L1.45 -11.79L1.45 -12.12Q1.45 -14.05 2.29 -15.39Q3.12 -16.74 4.57 -17.44Q6.02 -18.14 7.85 -18.14Q9.68 -18.14 11.09 -17.45Q12.5 -16.76 13.28 -15.54Q14.07 -14.33 14.07 -12.7L14.07 -12.47Q14.07 -10.74 13.39 -9.61Q12.7 -8.48 11.49 -7.77Q10.29 -7.06 8.66 -6.55L7.29 -6.12Q5.99 -5.71 5.14 -5.27Q4.29 -4.83 3.86 -4.14Q3.43 -3.45 3.43 -2.29L3.43 -1.85L13.92 -1.85L13.92 0Z" fillRule="nonzero"></path>
<path transform="matrix(1,0,0,1,54.4068,32.4104)" stroke="#2366ff" fill="none" d="M8.13 0.36Q5.11 0.36 3.31 -1.44Q1.52 -3.23 1.52 -6.81L1.52 -10.97Q1.52 -14.53 3.31 -16.33Q5.11 -18.14 8.13 -18.14Q11.18 -18.14 12.97 -16.33Q14.76 -14.53 14.76 -10.97L14.76 -6.81Q14.76 -3.23 12.97 -1.44Q11.18 0.36 8.13 0.36ZM8.13 -1.5Q10.41 -1.5 11.56 -2.87Q12.7 -4.24 12.7 -6.71L12.7 -11.1Q12.7 -13.56 11.53 -14.92Q10.36 -16.28 8.13 -16.28Q5.89 -16.28 4.74 -14.91Q3.58 -13.54 3.58 -11.1L3.58 -6.71Q3.58 -4.22 4.72 -2.86Q5.87 -1.5 8.13 -1.5Z" fillRule="nonzero"></path>
<path transform="matrix(1,0,0,1,70.6882,32.4104)" stroke="#2366ff" fill="none" d="M1.35 0L1.35 -1.85Q1.35 -3.76 2.02 -4.9Q2.69 -6.05 3.9 -6.74Q5.11 -7.44 6.78 -7.95L8.18 -8.38Q9.32 -8.74 10.19 -9.26Q11.05 -9.78 11.53 -10.58Q12.01 -11.38 12.01 -12.55L12.01 -12.65Q12.01 -14.33 10.85 -15.3Q9.68 -16.28 7.85 -16.28Q5.92 -16.28 4.7 -15.25Q3.48 -14.22 3.48 -12.14L3.48 -11.79L1.45 -11.79L1.45 -12.12Q1.45 -14.05 2.29 -15.39Q3.12 -16.74 4.57 -17.44Q6.02 -18.14 7.85 -18.14Q9.68 -18.14 11.09 -17.45Q12.5 -16.76 13.28 -15.54Q14.07 -14.33 14.07 -12.7L14.07 -12.47Q14.07 -10.74 13.39 -9.61Q12.7 -8.48 11.49 -7.77Q10.29 -7.06 8.66 -6.55L7.29 -6.12Q5.99 -5.71 5.14 -5.27Q4.29 -4.83 3.86 -4.14Q3.43 -3.45 3.43 -2.29L3.43 -1.85L13.92 -1.85L13.92 0Z" fillRule="nonzero"></path>
<path transform="matrix(1,0,0,1,86.0044,32.4104)" stroke="#2366ff" fill="none" d="M7.67 0.36Q5.72 0.36 4.29 -0.39Q2.87 -1.14 2.08 -2.48Q1.3 -3.81 1.3 -5.56L1.3 -5.87L3.35 -5.87L3.35 -5.64Q3.35 -3.63 4.52 -2.57Q5.69 -1.5 7.62 -1.5Q9.65 -1.5 10.8 -2.64Q11.94 -3.78 11.94 -5.77L11.94 -5.99Q11.94 -7.9 10.83 -9.03Q9.73 -10.16 7.98 -10.16Q6.96 -10.16 6.3 -9.84Q5.64 -9.52 5.26 -9.06Q4.88 -8.59 4.62 -8.15L1.83 -8.15L1.83 -17.78L13.51 -17.78L13.51 -15.93L3.89 -15.93L3.89 -9.78L4.24 -9.78Q4.52 -10.29 5.02 -10.77Q5.51 -11.25 6.35 -11.58Q7.19 -11.91 8.43 -11.91Q9.98 -11.91 11.24 -11.2Q12.5 -10.49 13.25 -9.17Q14 -7.85 14 -6.02L14 -5.74Q14 -3.94 13.23 -2.57Q12.47 -1.19 11.05 -0.42Q9.63 0.36 7.67 0.36Z" fillRule="nonzero"></path></g></svg>